<?xml version="1.0" encoding="utf-8"?>
<!-- Generator: Adobe Illustrator 17.0.0, SVG Export Plug-In . SVG Version: 6.00 Build 0)  -->
<!DOCTYPE svg PUBLIC "-//W3C//DTD SVG 1.1//EN" "http://www.w3.org/Graphics/SVG/1.1/DTD/svg11.dtd">
<svg version="1.1" id="Layer_1" xmlns="http://www.w3.org/2000/svg" xmlns:xlink="http://www.w3.org/1999/xlink" x="0px" y="0px"
	 width="612px" height="308.5px" viewBox="0 0 612 308.5" enable-background="new 0 0 612 308.5" xml:space="preserve">
<g>
	<path fill="#848484" d="M1,2.353V306.5h612V2.353H1z M305.594,152.478c-0.656,0.37-1.125,1.113-1.125,1.947
		s0.468,1.484,1.124,1.947v37.183c-21.18-0.742-38.145-17.99-38.145-39.13c0-21.143,16.963-38.39,38.144-39.132v37.185
		L305.594,152.478z M308.406,156.373c0.656-0.37,1.125-1.113,1.125-1.947c0-0.835-0.468-1.484-1.124-1.947v-37.184
		c21.18,0.742,38.145,17.99,38.145,39.13s-16.963,38.39-38.144,39.132v-37.184H308.406z M3.812,115.666h29.054v77.984H3.812V115.666
		z M35.677,196.431v-83.548H3.812v-45.99H96.69v175.44H3.812V196.34h31.865v0.093V196.431z M99.5,124.475
		c10.123,6.49,16.683,15.856,18.09,25.87c1.31,9.83-2.157,19.566-10.03,27.448c-2.342,2.41-5.06,4.636-8.06,6.49V124.475z
		 M3.813,303.717v-58.51h95.69v-57.585c3.842-2.226,7.216-4.916,10.12-7.79c8.436-8.53,12.278-19.102,10.78-29.765
		c-1.594-11.313-9.186-21.79-20.9-28.745V64.109H3.81V5.134h301.783v107.379c-22.68,0.742-40.956,19.287-40.956,41.913
		s18.275,41.17,40.955,41.913v107.378H3.813L3.813,303.717z M610.189,193.649h-29.054v-77.984h29.054V193.649z M578.324,112.884
		v83.548h31.865v45.993H517.31V66.893h92.878v45.993h-31.865L578.324,112.884z M514.5,184.378c-3-1.947-5.718-4.08-8.06-6.49
		c-7.78-7.883-11.34-17.712-10.03-27.448c1.407-10.015,7.967-19.38,18.09-25.87V184.378L514.5,184.378z M514.5,64.11v57.12
		c-11.716,6.955-19.308,17.433-20.9,28.745c-1.5,10.665,2.342,21.236,10.777,29.766c2.905,2.967,6.28,5.564,10.122,7.79v57.583
		h95.688v58.603H308.406V196.338c22.68-0.742,40.956-19.287,40.956-41.913s-18.276-41.17-40.956-41.913V5.133H610.19v58.975H514.5
		V64.11z M66.23,156.743c1.406,0,2.53-1.02,2.53-2.317c0-1.298-1.125-2.318-2.53-2.318c-1.406,0-2.53,1.02-2.53,2.318
		s1.124,2.318,2.53,2.318V156.743z M66.23,153.963c0.094,0,0.28,0.184,0.28,0.463c0,0.278-0.186,0.464-0.186,0.464
		c-0.094,0-0.28-0.185-0.28-0.464C65.949,154.148,66.136,153.962,66.23,153.963L66.23,153.963z M547.77,152.108
		c-1.406,0-2.53,1.02-2.53,2.318s1.124,2.318,2.53,2.318s2.53-1.02,2.53-2.317c0.094-1.298-1.124-2.318-2.53-2.318V152.108z
		 M547.77,154.888c-0.094,0-0.28-0.184-0.28-0.463c0-0.278,0.187-0.464,0.28-0.464s0.28,0.185,0.28,0.464
		C548.05,154.705,547.864,154.889,547.77,154.888L547.77,154.888z"/>
</g>
</svg>
